<svg xmlns="http://www.w3.org/2000/svg" width="128" height="128" viewBox="0 0 128 128" role="img" aria-label="NeoRex logo">
  <defs>
    <linearGradient id="g" x1="0" y1="0" x2="1" y2="1">
      <stop offset="0" stop-color="#7C3AED"/>
      <stop offset="1" stop-color="#22D3EE"/>
    </linearGradient>
    <filter id="s" x="-20%" y="-20%" width="140%" height="140%">
      <feDropShadow dx="0" dy="10" stdDeviation="10" flood-color="black" flood-opacity=".35"/>
    </filter>
  </defs>
  <rect x="14" y="14" width="100" height="100" rx="26" fill="url(#g)" filter="url(#s)"/>
  <rect x="18" y="18" width="92" height="92" rx="24" fill="rgba(0,0,0,.18)"/>
  <path d="M38 86V42h20.6c6 0 10.7 1.3 14 4 3.4 2.7 5.1 6.4 5.1 11.1 0 3.2-.8 5.9-2.5 8.2-1.6 2.3-3.9 3.9-6.9 4.8l11.6 15.9h-12L56.8 72.4H49.5V86H38Zm11.5-23.2h8.2c2.9 0 5.1-.6 6.6-1.7 1.5-1.2 2.3-2.9 2.3-5.2 0-2.3-.8-4-2.3-5.1-1.5-1.1-3.7-1.7-6.6-1.7h-8.2v13.7Z"
        fill="white" fill-opacity=".96"/>
  <path d="M88.5 42l-10.2 16.3 10.8 17.7h-12l-5-9-5.3 9H55.2l11.1-17.7L56 42h12l4.6 8 4.8-8h11.1Z"
        fill="white" fill-opacity=".92"/>
</svg>
